# xmcd
#
# Track frame offsets:
#	150
#	20230
#	37617
#	61357
#	92550
#	117155
#	142741
#	173250
#	210192
#	252016
#	262453
#
# Disc length: 3792 seconds
#
# Revision: 0
# Processed by: cddbd v1.5.2PL0 Copyright (c) Steve Scherf et al.
# Submitted via: SynApp - FreeCDDB Version: 2.6
#
DISCID=860ece0b
DTITLE=Jimmy Thackery and the Drivers - Solid Ice
DYEAR=2007
DGENRE=Blues
TTITLE0=Jimmy Thackery and the Drivers - Hit the big time
TTITLE1=Jimmy Thackery and the Drivers - How long
TTITLE2=Jimmy Thackery and the Drivers - Fifteen minutes
TTITLE3=Jimmy Thackery and the Drivers - Horbart`s blues
TTITLE4=Jimmy Thackery and the Drivers - Daze in May
TTITLE5=Jimmy Thackery and the Drivers - Blue tears
TTITLE6=Jimmy Thackery and the Drivers - XXX wife
TTITLE7=Jimmy Thackery and the Drivers - One or the other
TTITLE8=Jimmy Thackery and the Drivers - Solid ice
TTITLE9=Jimmy Thackery and the Drivers - Blue tears reprise
TTITLE10=Jimmy Thackery and the Drivers - Who knows
EXTD=
EXTT0=
EXTT1=
EXTT2=
EXTT3=
EXTT4=
EXTT5=
EXTT6=
EXTT7=
EXTT8=
EXTT9=
EXTT10=
PLAYORDER=
